<?xml version="1.0" encoding="utf-8"?>
<!-- Generator: Adobe Illustrator 16.0.0, SVG Export Plug-In . SVG Version: 6.00 Build 0)  -->
<!DOCTYPE svg PUBLIC "-//W3C//DTD SVG 1.1//EN" "http://www.w3.org/Graphics/SVG/1.1/DTD/svg11.dtd">
<svg version="1.1" id="Layer_1" xmlns="http://www.w3.org/2000/svg" xmlns:xlink="http://www.w3.org/1999/xlink" x="0px" y="0px"
	 width="200px" height="200px" viewBox="0 0 200 200" enable-background="new 0 0 200 200" xml:space="preserve">
<path fill="#542E91" d="M153.015,31.682l-0.567-10.041l-1.496-1.336l-2.729,0.156l-1.337,1.495L147.451,32l-2.188,0.123
	l-0.398-7.064l0,0l-0.17-2.982l-1.495-1.331l-2.729,0.153l-1.339,1.495l0.567,10.041l-2.188,0.127l-0.568-10.043l-1.494-1.336
	l-2.73,0.151l-1.338,1.498l0.169,2.98l0,0l0.398,7.061l-2.188,0.123l-0.567-10.041l-1.495-1.336l-2.734,0.156l-1.334,1.495
	l0.568,10.044l-2.191,0.122l-0.398-7.061l0,0l-0.166-2.982l-1.498-1.333l-2.732,0.154l-1.333,1.495l0.567,10.041l-2.19,0.128
	l-0.565-10.046l-1.497-1.333l-2.732,0.151l-1.337,1.495l0.17,2.982l0,0l0.396,7.066l-2.188,0.12l-0.396-7.064l0,0l-0.172-2.977
	l-1.493-1.339l-2.733,0.156l-1.335,1.495l0.567,10.041l-2.19,0.125l-0.565-10.046l-1.499-1.331l-2.73,0.151l-1.334,1.498
	l0.563,10.041l-2.187,0.123L90.43,25.144l-1.497-1.339l-2.729,0.154l-1.337,1.495L85.436,35.5l-2.191,0.12l-0.565-10.043
	l-1.496-1.333l-2.732,0.156l-1.335,1.495l0.566,10.043l-2.189,0.12l-0.568-10.043l-1.495-1.331l-2.731,0.148l-1.335,1.5
	l0.567,10.041l-2.188,0.125l-0.566-10.044l-1.499-1.336l-2.729,0.151l-1.335,1.498l0.565,10.046l-2.187,0.117l-0.569-10.036
	l-1.496-1.339l-2.731,0.154l-1.335,1.495l0.565,10.043l-2.188,0.125l-0.566-10.046l-1.497-1.333l-2.732,0.154l-1.336,1.498
	l0.167,2.977l0,0l0.401,7.066l-2.188,0.123l-0.398-7.064l0,0l-0.169-2.979l-1.497-1.339l-2.731,0.151l-1.335,1.5l0.565,10.043
	l-1.692,0.094l-6.363,7.124l0.086,1.502l-10.044,0.565l-1.336,1.495l0.151,2.735l1.497,1.333l10.042-0.562l0.126,2.188
	l-10.044,0.567l-1.339,1.495l0.157,2.73l1.495,1.336l2.981-0.169l0,0l7.063-0.396l0.123,2.188l-10.043,0.568l-1.336,1.493
	l0.153,2.732l1.498,1.341l10.042-0.568l0.124,2.186l-10.042,0.565l-1.337,1.503l0.152,2.727l1.498,1.336l10.043-0.57l0.123,2.19
	l-10.042,0.565l-1.337,1.498l0.155,2.732l1.497,1.333l2.981-0.167v0.005l7.062-0.401l0.121,2.19l-10.04,0.562l-1.337,1.498
	l0.155,2.732l1.495,1.331l10.043-0.563l0.124,2.191l-10.044,0.565l-1.336,1.498l0.152,2.727l1.498,1.336l10.042-0.565l0.122,2.19
	l-7.061,0.401l0,0l-2.979,0.166l-1.339,1.495l0.156,2.728l1.495,1.336l2.979-0.167l0,0l7.064-0.4l0.121,2.195l-10.041,0.56
	l-1.336,1.498l0.154,2.732l1.495,1.336l2.98-0.169l0,0l7.062-0.398l0.125,2.19l-10.042,0.567l-1.337,1.495l0.155,2.732l1.495,1.334
	l10.043-0.565l0.123,2.19l-7.062,0.396l0,0l-2.978,0.17l-1.338,1.495l0.155,2.729l1.495,1.339l10.042-0.565l0.122,2.186l-7.062,0.4
	l0,0l-2.979,0.17l-1.335,1.495l0.155,2.729l1.495,1.334l10.042-0.565l0.125,2.188l-10.045,0.567l-1.335,1.498l0.154,2.728
	L26.471,146l10.042-0.57l0.123,2.195l-10.041,0.565l-1.336,1.497l0.155,2.728l1.495,1.336l10.042-0.565l0.123,2.19l-10.042,0.565
	l-1.334,1.498l0.154,2.727l1.495,1.336l10.043-0.562l0.097,1.693l3.561,3.178l0,0l3.563,3.183l1.501-0.081l0.566,10.039l1.497,1.336
	l2.73-0.153l1.336-1.495l-0.567-10.047l2.188-0.122l0.398,7.063l0,0l0.169,2.982l1.497,1.331l2.729-0.148l1.337-1.497l-0.566-10.041
	l2.187-0.128l0.569,10.044l1.495,1.336l2.731-0.151l1.337-1.497l-0.568-10.044l2.189-0.122l0.568,10.043l1.495,1.336l2.732-0.156
	l1.336-1.494l-0.566-10.041l2.187-0.128l0.567,10.049l1.497,1.328l2.731-0.151l1.335-1.492l-0.566-10.046l2.188-0.125l0.568,10.043
	l1.496,1.337l2.729-0.151l1.339-1.498l-0.566-10.041l2.188-0.122l0.568,10.044l1.495,1.333l2.732-0.153l1.336-1.501l-0.569-10.038
	l2.19-0.127l0.566,10.046l1.495,1.334l2.732-0.154l1.336-1.492l-0.567-10.044l2.188-0.125l0.568,10.041l1.497,1.336l2.73-0.153
	l1.336-1.492l-0.568-10.047l2.19-0.122l0.399,7.063l0,0l0.166,2.978l1.495,1.339l2.735-0.153l1.333-1.498l-0.565-10.041l2.188-0.125
	l0.57,10.044l1.495,1.333l2.729-0.153l1.336-1.498l-0.567-10.038l2.19-0.125l0.565,10.041l1.497,1.339l2.729-0.154l1.337-1.494
	l-0.568-10.044l2.188-0.122l0.57,10.035l1.495,1.342l2.729-0.159l1.339-1.492l-0.567-10.044l2.188-0.119l0.567,10.04l1.495,1.334
	l2.735-0.151l1.333-1.497l-0.166-2.975l0,0l-0.401-7.064l2.188-0.127l0.568,10.041l1.495,1.339l2.732-0.154l1.336-1.495
	l-0.568-10.046l1.693-0.091l6.36-7.121l-6.616-117.292l-7.123-6.363L153.015,31.682z M171.781,39.089l-2.98,0.169l0,0l-7.061,0.393
	l0.31,5.569l10.046-0.57l1.334-1.495l-0.153-2.732L171.781,39.089z M169.239,47.01L169.239,47.01l-7.064,0.398l0.315,5.561
	l10.043-0.565l1.337-1.495l-0.156-2.732l-1.498-1.336L169.239,47.01z M162.615,55.163l0.311,5.566l7.063-0.403l0,0l2.979-0.164
	l1.336-1.503l-0.153-2.727l-1.495-1.339L162.615,55.163z M170.111,62.513L170.111,62.513l-7.061,0.401l0.312,5.566l10.043-0.568
	l1.336-1.5l-0.153-2.732l-1.497-1.333L170.111,62.513z M170.552,70.267L170.552,70.267l-7.063,0.393l0.314,5.566l10.044-0.565
	l1.333-1.495l-0.153-2.732l-1.497-1.338L170.552,70.267z M163.926,78.417l0.312,5.563l7.063-0.396l0,0l2.979-0.172l1.336-1.498
	l-0.156-2.729l-1.494-1.336L163.926,78.417z M171.424,85.767L171.424,85.767l-7.061,0.401l0.312,5.566l10.043-0.568l1.336-1.495
	l-0.156-2.732l-1.494-1.336L171.424,85.767z M171.861,93.521L171.861,93.521l-7.063,0.401l0.317,5.563l10.039-0.57l1.339-1.495
	l-0.156-2.73l-1.495-1.333L171.861,93.521z M165.235,101.674l0.312,5.563l10.046-0.567l1.337-1.495l-0.156-2.732l-1.495-1.334
	L165.235,101.674z M165.673,109.425l0.315,5.562l10.041-0.562l1.336-1.501l-0.153-2.724l-1.495-1.339L165.673,109.425z
	 M166.111,117.177l0.314,5.566l10.041-0.568l1.339-1.497l-0.156-2.73l-1.495-1.336L166.111,117.177z M166.549,124.934l0.312,5.561
	l10.043-0.565l1.336-1.495l-0.153-2.737l-1.495-1.333L166.549,124.934z M166.986,132.685l0.314,5.562l10.041-0.571l1.336-1.492
	l-0.153-2.732l-1.495-1.333L166.986,132.685z M167.424,140.431l0.312,5.566l7.063-0.403v0.005l2.982-0.167l1.336-1.498l-0.156-2.727
	l-1.495-1.339L167.424,140.431z M167.861,148.188l0.312,5.561l10.043-0.564l1.336-1.498l-0.15-2.732l-1.498-1.331L167.861,148.188z"
	/>
<g>
	<g>
		<path fill="#FFFFFF" d="M63.774,99.431l-0.693,0.023c-1.829,0.076-3.019-1.54-3.568-4.834c-0.547-3.287-1.464-5.222-2.771-5.782
			c-2.511,1.743-3.068,2.258-3.707,4.019c-0.856,2.371-0.731,4.816-0.924,6.569c0,0-0.079,0.193-0.193,0.305
			c-0.112,0.117-0.239,0.193-0.875,0.419c-0.646,0.224-0.406,0.248-1.07,0.274c-0.667,0.023-1.045-0.597-1.258-0.904
			c-0.25-0.37-0.307-0.776-0.505-1.383c-0.479-1.373-0.875-4.146-1.177-8.316c-0.203-2.845-0.399-1.214-0.485-5.694
			c-0.088-4.488-0.164-4.024-0.135-6.176c0.005-0.576,0.088-1.016,0.255-1.333c0.159-0.308,0.386-0.474,0.677-0.484
			c1.276-0.055,2.269-0.284,2.927,2.889c0.475,2.24,0.792,3.896,0.946,5.857c0.159,2.021,0.123,0.391,0.102,2.597
			c0.829-1.276,1.589-2.276,2.297-3.005c1.141-1.206,2.198-1.091,3.188-1.13c2.204-0.081,3.996,2.107,5.368,6.559
			C63.271,93.404,63.803,96.582,63.774,99.431z"/>
		<path fill="#FFFFFF" d="M84.791,88.15c0.104,2.891-1.638,5.598-5.238,8.116c-3.261,2.256-6.462,3.454-9.59,3.571
			c-1.672,0.062-2.847-0.32-3.547-1.162c-0.693-0.836-1.073-2.12-1.136-3.855c-0.086-2.19,0.385-4.261,1.399-6.222
			c1.021-1.959,2.451-3.615,4.29-4.954c0.651-0.597,1.146-1.023,1.49-1.315c0.625-0.534,1.225-0.812,1.792-0.844
			c2.376-0.086,4.605,0.411,6.699,1.495C83.426,84.267,84.71,85.989,84.791,88.15z M81.119,88.617
			c-0.031-0.87-0.461-1.565-1.292-2.089c-0.831-0.526-1.706-0.771-2.618-0.737c-1.859,0.076-3.719,0.972-5.568,2.693
			c-1.86,1.729-2.746,3.496-2.673,5.308c0.026,0.732,0.315,1.235,0.87,1.514c0.547,0.278,1.208,0.406,1.995,0.37
			c1.618-0.06,3.537-0.833,5.741-2.333C79.999,91.706,81.179,90.127,81.119,88.617z"/>
		<path fill="#FFFFFF" d="M91.134,99.197l-1.032,0.12c-0.412,0.019-0.802-0.026-1.162-0.12c-0.359-0.096-0.628-0.279-0.802-0.549
			c-0.031-0.112-0.24-1.797-0.61-5.059c-0.5-4.579-0.685-3.493-0.856-5.134c-0.352-3.381-0.508-4.615-0.526-5.113l-0.255-6.684
			c-0.008-0.305-0.019-0.534-0.026-0.698c-0.019-0.495,0.013-0.928,0.097-1.292c0.083-0.359,0.286-0.599,0.609-0.716
			c0.817,0.273,1.438,0.724,1.878,1.37c0.346,0.539,0.628,1.281,0.825,2.24c0.204,0.961,0.354,1.982,0.448,3.084
			c0.099,1.102,0.172,2.297,0.224,3.592c0.005,0.222-0.016-0.305-0.008-0.167c0.023,0.607,0.042,1.193,0.065,1.776
			c0.021,0.579,0.047,1.157,0.068,1.732c0.068,1.761,0.107,0.188,0.453,3.699C90.862,94.8,91.068,97.434,91.134,99.197z"/>
		<path fill="#FFFFFF" d="M95.921,76.815c0.018,0.438-0.081,0.831-0.287,1.188c-0.208,0.356-0.531,0.536-0.974,0.555
			c-0.573,0.021-1.078-0.328-1.508-1.039c-0.425-0.711-0.649-1.415-0.675-2.104c-0.019-0.438,0.06-0.852,0.239-1.25
			c0.178-0.388,0.475-0.586,0.886-0.609c0.578-0.019,1.102,0.352,1.579,1.12C95.642,75.438,95.895,76.156,95.921,76.815z
			 M98.625,89.283c0.078,1.925,0.088,3.576,0.047,4.938c-0.042,1.37-0.203,2.813-0.479,4.342c-1.323-0.109-2.24-0.602-2.735-1.466
			c-0.091-0.162-0.422-1.209-0.995-3.149c-0.125-0.432-0.224-0.945-0.307-1.539c-0.073-0.594-0.125-1.169-0.146-1.753
			c-0.031-0.711-0.016-1.805,0.042-3.267c0.052-1.461,0.062-2.57,0.036-3.321c0.276-0.002,0.748-0.138,1.428-0.417
			c0.385-0.156,0.656-0.232,0.823-0.24c0.356-0.016,0.81,0.537,1.362,1.657c0.557,1.133,0.839,1.925,0.857,2.398L98.625,89.283
			L98.625,89.283z"/>
		<path fill="#FFFFFF" d="M116.812,78.328c0.117,3.053,0.086,2.72,0.133,4.624c0.183,7.572,0.284,11.736,0.312,12.481
			c-0.164-0.023-0.648-0.081-1.453-0.172c-0.805-0.096-1.412-0.13-1.82-0.123c-1.186,0.844-2.321,1.594-3.41,2.237
			c-1.088,0.654-2.287,1.003-3.578,1.05c-1.568,0.062-2.943-0.521-4.121-1.74c-1.172-1.224-1.795-2.636-1.857-4.233
			c-0.067-1.93,0.69-4.006,2.285-6.251c1.706-2.378,3.484-3.607,5.36-3.672c0.575-0.026,1.083,0,1.511,0.06
			c0.432,0.073,1.047,0.2,1.854,0.396c0.146-0.56,0.259-1.086,0.225-4.378c-0.026-3.295,0.469-4.066,1.396-5.123
			c1.062,0.377,1.844,0.971,2.347,1.792C116.487,76.094,116.764,77.115,116.812,78.328z M112.844,88.072
			c-0.021-0.578-0.209-1.06-0.573-1.445c-0.357-0.383-0.815-0.565-1.362-0.55c-1.24,0.052-2.438,0.82-3.598,2.334
			c-1.15,1.5-1.7,2.891-1.653,4.157c0.016,0.55,0.19,1.024,0.505,1.425c0.323,0.406,0.756,0.594,1.308,0.568
			c0.989-0.037,2.142-0.88,3.459-2.534C112.241,90.385,112.883,89.067,112.844,88.072z"/>
		<path fill="#FFFFFF" d="M134.517,92.641c0.036,0.933,0,1.792-0.094,2.584c-0.091,0.789-0.273,1.558-0.547,2.311
			c-1.058-0.229-1.923-0.75-2.579-1.545c-0.26-0.292-0.791-1.164-1.589-2.609c-0.102,0.278-1.062,1.065-2.886,2.365
			c-1.828,1.297-2.933,1.951-3.318,1.964c-1.459,0.057-2.547-0.383-3.253-1.323c-0.711-0.935-1.097-2.159-1.151-3.672
			c-0.084-2.149,0.982-5.207,3.206-9.179c2.345-4.191,4.402-6.321,6.157-6.397c1.845-0.065,3.267,1.188,4.259,3.761
			C133.714,83.475,134.318,87.39,134.517,92.641z M129.466,82.642c-0.008-0.162-0.026-0.362-0.05-0.594
			c-0.021-0.234-0.078-0.542-0.177-0.925c-0.253,0.005-0.565,0.144-0.958,0.409c-0.391,0.263-0.714,0.542-0.979,0.82
			c-0.586,0.659-1.412,2.162-2.475,4.519c-1.067,2.36-1.583,3.936-1.558,4.735l0.016,0.451c1.914-0.516,3.438-1.698,4.582-3.563
			C129.008,86.624,129.541,84.676,129.466,82.642z"/>
		<path fill="#FFFFFF" d="M151.379,80.769c0.023,0.828-0.756,3.688-2.367,8.566c-1.407,4.274-0.295,2.037-2.11,6.923
			c-1.808,4.881-1.703,4.235-2.276,5.246c-0.255,0.453-0.558,0.799-0.909,1.047c-0.344,0.247-0.766,0.38-1.266,0.401
			c-0.63,0.025-1.188-0.094-1.667-0.354c-0.479-0.256-0.729-0.686-0.75-1.292c-0.034-0.82,0.489-2.058,0.914-3.056
			c0.425-0.992,0.717-1.302,1.154-2.344c0.432-1.04,0.408-1.186,0.361-2.308c-0.064-1.6-1.164-3.279-2.451-5.074
			c-1.188-1.529-2.38-3.071-3.57-4.618c-1.308-1.883-1.998-3.646-2.058-5.298c2.3,0.3,4.519,2.142,6.655,5.53
			c1.38,2.214,2.477,3.667,3.276,4.386c0.729-1.815,1.37-3.743,1.922-5.777c0.484-1.758,0.95-3.732,1.394-5.926l0.602-0.44
			c0.969,0.159,1.75,0.695,2.334,1.615C151.068,78.771,151.332,79.701,151.379,80.769z"/>
	</g>
	<g>
		<path fill="#FDDC06" d="M66.78,122.719c0.057,1.396-1.141,2.631-3.579,3.688c-1.979,0.847-3.823,1.303-5.529,1.37
			c-2.753,0.102-5.024-0.403-6.837-1.519c-2.12-1.331-3.225-3.308-3.329-5.928c-0.094-2.511,0.87-4.829,2.896-6.965
			c2.031-2.142,4.321-3.253,6.881-3.35c1.678-0.065,3.287,0.511,4.819,1.724c1.534,1.206,2.339,2.642,2.402,4.298
			c0.07,1.936-2.574,3.293-7.95,4.084c-3.047,0.365-4.925,0.592-5.636,0.667l0.028,0.779c0.026,0.727,0.683,1.323,1.969,1.802
			c1.091,0.394,2.063,0.579,2.915,0.55c1.076-0.044,2.396-0.38,3.975-1.016c1.571-0.641,3.183-1.315,4.845-2.003
			c0.492-0.026,0.966,0.151,1.422,0.521C66.525,121.781,66.765,122.222,66.78,122.719z M60.688,115.796
			c-0.023-0.661-0.463-1.19-1.32-1.586c-0.859-0.391-1.654-0.575-2.401-0.544c-0.93,0.031-1.815,0.372-2.646,1.01
			c-0.484,0.378-1.141,1.063-1.984,2.058c1.253,0.256,2.672,0.354,4.245,0.295c0.641-0.026,1.323-0.091,2.047-0.198
			c0.732-0.112,1.425-0.25,2.086-0.411L60.688,115.796z"/>
		<path fill="#FDDC06" d="M83.262,124.402l0.07,1.814c-1.198-0.239-2.318-0.838-3.365-1.797c-2.581-2.35-4.78-3.553-5.077-3.662
			c-0.62,1.144-1.581,2.548-2.88,4.212c-0.63,0.805-1.266,1.615-1.896,2.422c-0.214-0.231-0.531-0.555-0.954-0.963
			c-0.781-0.761-1.182-1.378-1.198-1.853c-0.031-0.781,0.849-2.378,2.638-4.779c0.826-1.1,1.222-2.092,1.19-2.972
			c-0.042-1.053-2.16-2.321-3.303-3.949c-1.151-1.622-1.735-2.677-1.755-3.183c-0.016-0.453,0.052-0.867,0.213-1.242
			c0.159-0.373,0.438-0.631,0.838-0.764c0.412,0.128,0.998,0.664,1.756,1.604c1.917,2.384,4.623,3.67,5.063,3.983
			c0.82-2.071,1.281-3.22,1.394-3.438c0.836-1.579,1.742-2.381,2.727-2.42c0.404-0.021,0.722,0.13,0.948,0.438
			c0.229,0.312,0.365,0.85,0.386,1.615c0.047,1.208-0.214,2.433-0.792,3.683c-0.573,1.25-1.167,2.501-1.787,3.767
			c0.016,0.302,1.907,1.672,4.152,4.151C82.679,122.245,83.226,123.354,83.262,124.402z"/>
		<path fill="#FDDC06" d="M101.075,109.003l-0.3-0.07l-0.25-0.028c-0.179,0.195-0.271,0.394-0.26,0.583
			c0.002,0.136,0.083,0.337,0.229,0.612c-0.203,1.162-1.458,1.818-3.766,1.982c-2.315,0.151-3.824,0.7-4.532,1.633
			c-0.091,0.443-0.13,0.94-0.109,1.484c0.01,0.198,0.021,0.501,0.036,0.907c0.016,0.416,0.026,0.745,0.037,0.995
			c0.026,0.57-0.078,2.016-0.312,4.334c-0.109,1.078-0.146,1.933-0.125,2.565c0.031,0.797,0.182,1.56,0.458,2.292l-0.823,0.031
			c-1.021,0.039-1.787-0.264-2.312-0.898c-0.604-0.748-0.948-2.123-1.021-4.129c-0.026-0.656-0.018-1.44,0.031-2.359
			c0.117-2.086,0.162-3.389,0.141-3.915c-0.062-1.683-1.258-2.57-3.576-2.678c-2.318-0.104-3.514-1.081-3.586-2.953
			c-0.005-0.19-0.01-0.386-0.016-0.573c0.021-0.172,0.073-0.516,0.167-1.037c1.297,0.164,2.032,0.266,2.198,0.287
			c0.886,0.106,1.646,0.141,2.279,0.119c1.404-0.055,2.378-0.508,2.925-1.361c0.438-0.701,0.523-1.506,0.49-2.037
			c-0.037-0.531-0.144-0.953-0.146-1.014c-0.031-0.747,0.026-0.703,0.117-1.292c1.139,0.209,1.987,0.065,2.597,0.987
			c0.732,1.076,0.784,1.311,0.88,1.626c0.097,0.305,0.112,0.596,0.125,0.955c0.005,0.139,0.052,0.308,0.148,0.517
			c0.083,0.205,0.148,0.33,0.175,0.388c0.305,0.156,0.635,0.255,0.977,0.294c0.346,0.042,0.734,0.055,1.172,0.039
			c0.273-0.016,0.683-0.039,1.232-0.088c0.547-0.045,0.927-0.076,1.151-0.086c0.901-0.037,1.625,0.08,2.169,0.354
			C100.224,107.732,100.689,108.248,101.075,109.003z"/>
		<path fill="#FDDC06" d="M118.597,110.36c0.005,0.281-0.094,0.56-0.302,0.844c-0.214,0.281-0.453,0.433-0.725,0.438
			c-0.166,0.008-0.625-0.097-1.377-0.32c-0.42-0.122-0.738-0.175-0.962-0.172c-1.786,0.07-3.61,1.362-5.475,3.892
			c-0.834,1.133-2.235,3.477-4.193,7.021c-1.392,2.532-2.401,3.813-3.034,3.834c-1.298,0.055-2.248-1.708-2.853-5.303
			c-0.339-2.359-0.675-4.732-1.016-7.113l-1.516-5.107c0.323-0.128,0.674-0.336,1.052-0.625c0.375-0.297,0.664-0.516,0.88-0.662
			c1.412,0.967,2.338,1.728,2.777,2.298c0.292,0.372,0.448,0.852,0.469,1.43c0.031,0.739,0.078,1.311,0.164,1.711
			c0.086,0.398,0.367,1.048,0.841,1.938c1.203-1.618,2.415-3.238,3.621-4.853c1.322-1.433,3.167-2.186,5.532-2.279
			c1.378-0.055,2.609,0.106,3.701,0.477C117.748,108.359,118.55,109.209,118.597,110.36z"/>
		<path fill="#FDDC06" d="M132.029,119.911c0.033,0.933,0.008,1.798-0.086,2.587c-0.092,0.786-0.276,1.553-0.553,2.308
			c-1.057-0.227-1.917-0.737-2.584-1.542c-0.26-0.289-0.783-1.162-1.588-2.609c-0.094,0.278-1.063,1.067-2.881,2.37
			c-1.829,1.294-2.934,1.95-3.318,1.961c-1.459,0.055-2.543-0.383-3.251-1.32c-0.711-0.938-1.099-2.157-1.156-3.678
			c-0.081-2.154,0.984-5.202,3.206-9.179c2.347-4.191,4.404-6.324,6.162-6.39c1.848-0.07,3.267,1.18,4.257,3.753
			C131.234,110.748,131.828,114.666,132.029,119.911z M126.974,109.923c-0.003-0.164-0.016-0.373-0.036-0.602
			c-0.023-0.237-0.089-0.545-0.186-0.925c-0.247,0.008-0.568,0.148-0.956,0.409c-0.388,0.266-0.714,0.533-0.981,0.825
			c-0.581,0.654-1.409,2.162-2.473,4.517c-1.067,2.352-1.583,3.936-1.557,4.729l0.018,0.454c1.909-0.517,3.436-1.704,4.582-3.561
			C126.525,113.908,127.052,111.957,126.974,109.923z"/>
		<path fill="#FDDC06" d="M153.176,117.352c0.109,2.886-2.021,4.99-6.376,6.276c-2.562,0.764-5.936,1.222-10.119,1.376
			c-1.981,0.08-2.69-0.016-3.529-0.229c-1.578-0.411-2.401-1.37-2.461-2.886l0.07-1.37c1.021-0.034,2.552,0.011,4.6,0.156
			c2.045,0.141,2.876,0.222,3.889,0.185c1.706-0.062,3.12-0.283,4.232-0.659c1.392-0.463,2.573-1.224,3.553-2.284l-0.427-0.352
			c-0.523,0.014-1.104-0.052-1.742-0.208c-0.639-0.148-1.251-0.317-1.837-0.489c-2.667-0.417-4.526-1.107-5.579-2.059
			c-0.917-0.812-1.396-1.911-1.448-3.289c-0.067-1.823,0.831-3.415,2.709-4.777c1.661-1.222,3.475-1.867,5.428-1.945
			c1.209-0.047,2.251,0.192,3.126,0.706c0.873,0.521,1.467,1.339,1.789,2.461c-2.852,0.433-4.406,0.69-4.681,0.753
			c-1.808,0.456-3.125,1.24-3.964,2.347c5.001,0.995,7.543,1.5,7.618,1.523C151.379,113.645,153.093,115.236,153.176,117.352z"/>
	</g>
</g>
</svg>
